<svg width="32" height="32" viewBox="0 0 32 32" fill="none" xmlns="http://www.w3.org/2000/svg">
<path d="M4.83542 1.5V3.05317C4.83542 4.11683 3.9821 4.97909 2.92947 4.97909H1.5M4.83542 1.5H18.594C19.6467 1.5 20.5 2.36227 20.5 3.42593V5.35185M4.83542 1.5L1.5 4.97909M1.5 4.97909L1.5 25.5741C1.5 26.6377 2.35333 27.5 3.40596 27.5H10.0172M13.7558 5.5V7.02619C13.7558 8.07138 12.9229 8.91867 11.8953 8.91867H10.5M13.7558 5.5L28.6395 5.52931C29.667 5.52931 30.5 6.37661 30.5 7.42179V28.6075C30.5 29.6527 29.667 30.5 28.6395 30.5L12.3605 30.4707C11.333 30.4707 10.5 29.6234 10.5 28.5782V8.91867M13.7558 5.5L10.5 8.91867" stroke="white" stroke-width="0.5" stroke-linecap="round" stroke-linejoin="round"/>
<path d="M14 13C14 12.4477 14.4477 12 15 12H26C26.5523 12 27 12.4477 27 13C27 13.5523 26.5523 14 26 14H15C14.4477 14 14 13.5523 14 13Z" fill="white"/>
<path d="M14 17C14 16.4477 14.4477 16 15 16H26C26.5523 16 27 16.4477 27 17C27 17.5523 26.5523 18 26 18H15C14.4477 18 14 17.5523 14 17Z" fill="white"/>
<path d="M14 21C14 20.4477 14.4477 20 15 20H26C26.5523 20 27 20.4477 27 21C27 21.5523 26.5523 22 26 22H15C14.4477 22 14 21.5523 14 21Z" fill="white"/>
<path d="M14 25C14 24.4477 14.4477 24 15 24H26C26.5523 24 27 24.4477 27 25C27 25.5523 26.5523 26 26 26H15C14.4477 26 14 25.5523 14 25Z" fill="white"/>
</svg>
