<svg width="32" height="32" viewBox="0 0 32 32" fill="none" xmlns="http://www.w3.org/2000/svg">
<path d="M14.5 12.75C14.5 12.6119 14.6119 12.5 14.75 12.5V12.5C14.8881 12.5 15 12.6119 15 12.75V22.25C15 22.3881 14.8881 22.5 14.75 22.5V22.5C14.6119 22.5 14.5 22.3881 14.5 22.25V12.75Z" fill="white"/>
<path d="M17 12.75C17 12.6119 17.1119 12.5 17.25 12.5V12.5C17.3881 12.5 17.5 12.6119 17.5 12.75V22.25C17.5 22.3881 17.3881 22.5 17.25 22.5V22.5C17.1119 22.5 17 22.3881 17 22.25V12.75Z" fill="white"/>
<path d="M10.5234 22.6904L11.0212 22.6428L11.0194 22.6243L11.0163 22.606L10.5234 22.6904ZM10.3067 21.4236L9.80898 21.4712L9.81074 21.4896L9.81387 21.5079L10.3067 21.4236ZM9.37829 19.866L9.67546 19.4639L9.67546 19.4639L9.37829 19.866ZM21.6933 21.4236L22.1861 21.5079L22.1893 21.4896L22.191 21.4712L21.6933 21.4236ZM21.4766 22.6904L20.9837 22.606L20.9806 22.6243L20.9788 22.6428L21.4766 22.6904ZM22.6217 19.866L22.9189 20.2681L22.9189 20.2681L22.6217 19.866ZM12 28C11.7239 28 11.5 28.2239 11.5 28.5C11.5 28.7761 11.7239 29 12 29V28ZM20 29C20.2761 29 20.5 28.7761 20.5 28.5C20.5 28.2239 20.2761 28 20 28V29ZM12 26C11.7239 26 11.5 26.2239 11.5 26.5C11.5 26.7761 11.7239 27 12 27V26ZM20 27C20.2761 27 20.5 26.7761 20.5 26.5C20.5 26.2239 20.2761 26 20 26V27ZM14.5 12.75V22.25H15.5V12.75H14.5ZM15 22.25V12.75H14V22.25H15ZM17 12.75V22.25H18V12.75H17ZM17.5 22.25V12.75H16.5V22.25H17.5ZM5.5 11.2673C5.5 5.60686 10.1909 1 16 1V0C9.65886 0 4.5 5.03453 4.5 11.2673H5.5ZM16 1C21.8091 1 26.5 5.60686 26.5 11.2673H27.5C27.5 5.03453 22.3411 0 16 0V1ZM19.4856 24H12.5144V25H19.4856V24ZM11.0163 22.606L10.7995 21.3393L9.81387 21.5079L10.0306 22.7747L11.0163 22.606ZM9.67546 19.4639C7.13595 17.5871 5.5 14.6126 5.5 11.2673H4.5C4.5 14.9483 6.30177 18.2141 9.08113 20.2681L9.67546 19.4639ZM21.2005 21.3393L20.9837 22.606L21.9694 22.7747L22.1861 21.5079L21.2005 21.3393ZM26.5 11.2673C26.5 14.6126 24.864 17.5871 22.3245 19.4639L22.9189 20.2681C25.6982 18.2141 27.5 14.9483 27.5 11.2673H26.5ZM22.191 21.4712C22.2354 21.0072 22.505 20.5739 22.9189 20.2681L22.3245 19.4639C21.7229 19.9085 21.2714 20.583 21.1956 21.376L22.191 21.4712ZM10.8044 21.376C10.7286 20.583 10.2771 19.9085 9.67546 19.4639L9.08113 20.2681C9.49499 20.5739 9.76461 21.0072 9.80898 21.4712L10.8044 21.376ZM12.5144 24C11.7412 24 11.0947 23.4124 11.0212 22.6428L10.0257 22.7379C10.1483 24.0206 11.2258 25 12.5144 25V24ZM19.4856 25C20.7742 25 21.8517 24.0206 21.9743 22.7379L20.9788 22.6428C20.9053 23.4124 20.2588 24 19.4856 24V25ZM12 29H20V28H12V29ZM12 27H20V26H12V27ZM17.25 22C17.3881 22 17.5 22.1119 17.5 22.25H16.5C16.5 22.6642 16.8358 23 17.25 23V22ZM17 22.25C17 22.1119 17.1119 22 17.25 22V23C17.6642 23 18 22.6642 18 22.25H17ZM17.25 13C17.1119 13 17 12.8881 17 12.75H18C18 12.3358 17.6642 12 17.25 12V13ZM17.25 12C16.8358 12 16.5 12.3358 16.5 12.75H17.5C17.5 12.8881 17.3881 13 17.25 13V12ZM14.75 22C14.8881 22 15 22.1119 15 22.25H14C14 22.6642 14.3358 23 14.75 23V22ZM14.5 22.25C14.5 22.1119 14.6119 22 14.75 22V23C15.1642 23 15.5 22.6642 15.5 22.25H14.5ZM14.75 13C14.6119 13 14.5 12.8881 14.5 12.75H15.5C15.5 12.3358 15.1642 12 14.75 12V13ZM14.75 12C14.3358 12 14 12.3358 14 12.75H15C15 12.8881 14.8881 13 14.75 13V12Z" fill="white"/>
<path d="M16 31.5C16.5523 31.5 17 31.0523 17 30.5H15C15 31.0523 15.4477 31.5 16 31.5Z" fill="white"/>
<path d="M25.5 19.5L31.5 21.5M23.5 21.5L31.5 28.5M6.5 19.5L0.5 21.5M8.5 21.5L0.5 28.5M17 30.5C17 31.0523 16.5523 31.5 16 31.5C15.4477 31.5 15 31.0523 15 30.5H17Z" stroke="white" stroke-linecap="round" stroke-linejoin="round"/>
</svg>
