<svg width="32" height="32" viewBox="0 0 32 32" fill="none" xmlns="http://www.w3.org/2000/svg">
<path d="M4.5 4C4.5 3.72386 4.72386 3.5 5 3.5C5.27614 3.5 5.5 3.72386 5.5 4C5.5 4.27614 5.27614 4.5 5 4.5C4.72386 4.5 4.5 4.27614 4.5 4ZM7.5 4C7.5 3.72386 7.72386 3.5 8 3.5C8.27614 3.5 8.5 3.72386 8.5 4C8.5 4.27614 8.27614 4.5 8 4.5C7.72386 4.5 7.5 4.27614 7.5 4ZM10.5 4C10.5 3.72386 10.7239 3.5 11 3.5C11.2761 3.5 11.5 3.72386 11.5 4C11.5 4.27614 11.2761 4.5 11 4.5C10.7239 4.5 10.5 4.27614 10.5 4ZM4.3125 12C4.3125 11.7239 4.53636 11.5 4.8125 11.5H27.1875C27.4636 11.5 27.6875 11.7239 27.6875 12C27.6875 12.2761 27.4636 12.5 27.1875 12.5H4.8125C4.53636 12.5 4.3125 12.2761 4.3125 12ZM4.3125 16C4.3125 15.7239 4.53636 15.5 4.8125 15.5H27.1875C27.4636 15.5 27.6875 15.7239 27.6875 16C27.6875 16.2761 27.4636 16.5 27.1875 16.5H4.8125C4.53636 16.5 4.3125 16.2761 4.3125 16ZM4.3125 20C4.3125 19.7239 4.53636 19.5 4.8125 19.5H27.1875C27.4636 19.5 27.6875 19.7239 27.6875 20C27.6875 20.2761 27.4636 20.5 27.1875 20.5H4.8125C4.53636 20.5 4.3125 20.2761 4.3125 20ZM4.3125 24C4.3125 23.7239 4.53636 23.5 4.8125 23.5H27.1875C27.4636 23.5 27.6875 23.7239 27.6875 24C27.6875 24.2761 27.4636 24.5 27.1875 24.5H4.8125C4.53636 24.5 4.3125 24.2761 4.3125 24Z" stroke="white"/>
<path d="M3.5 6C3.22386 6 3 6.22386 3 6.5C3 6.77614 3.22386 7 3.5 7H28.5C28.7761 7 29 6.77614 29 6.5C29 6.22386 28.7761 6 28.5 6H3.5ZM2.875 1.5H29.125C29.8844 1.5 30.5 2.11561 30.5 2.875V29.125C30.5 29.8844 29.8844 30.5 29.125 30.5H2.875C2.11561 30.5 1.5 29.8844 1.5 29.125V2.875C1.5 2.11561 2.11561 1.5 2.875 1.5Z" stroke="white" stroke-linecap="round" stroke-linejoin="round"/>
</svg>
