<svg width="32" height="32" viewBox="0 0 32 32" fill="none" xmlns="http://www.w3.org/2000/svg">
<mask id="path-1-inside-1_1071_1511" fill="white">
<path d="M26.2025 0.711067C26.5938 0.321294 27.2282 0.321294 27.6195 0.711067L31.3042 4.38168C31.6955 4.77145 31.6955 5.4034 31.3042 5.79317L29.5006 7.58984L25.1074 3.21349C24.7161 2.82371 24.7161 2.19176 25.1074 1.80199L26.2025 0.711067Z"/>
</mask>
<path d="M26.2025 0.711067C26.5938 0.321294 27.2282 0.321294 27.6195 0.711067L31.3042 4.38168C31.6955 4.77145 31.6955 5.4034 31.3042 5.79317L29.5006 7.58984L25.1074 3.21349C24.7161 2.82371 24.7161 2.19176 25.1074 1.80199L26.2025 0.711067Z" fill="white"/>
<path d="M29.5006 7.58984L28.7949 8.29831L29.5006 9.00135L30.2064 8.29831L29.5006 7.58984ZM25.1074 3.21349L24.4017 3.92195L25.1074 3.21349ZM25.1074 1.80199L24.4017 1.09353L24.4017 1.09353L25.1074 1.80199ZM31.3042 4.38168L30.5984 5.09014L31.3042 4.38168ZM31.3042 5.79317L32.0099 6.50164L31.3042 5.79317ZM27.6195 0.711067L28.3252 0.00260393L27.6195 0.711067ZM26.2025 0.711067L26.9083 1.41953L26.9083 1.41953L26.2025 0.711067ZM26.9137 1.41953L30.5984 5.09014L32.0099 3.67322L28.3252 0.00260394L26.9137 1.41953ZM30.5984 5.08471L28.7949 6.88138L30.2064 8.29831L32.0099 6.50164L30.5984 5.08471ZM30.2064 6.88138L25.8132 2.50502L24.4017 3.92195L28.7949 8.29831L30.2064 6.88138ZM25.8132 2.51045L26.9083 1.41953L25.4968 0.00260364L24.4017 1.09353L25.8132 2.51045ZM25.8132 2.50502C25.8122 2.5041 25.8122 2.5039 25.8126 2.50445C25.8129 2.50495 25.8132 2.5056 25.8135 2.50628C25.814 2.50753 25.814 2.508 25.814 2.50774C25.814 2.50747 25.814 2.50794 25.8135 2.50919C25.8132 2.50987 25.8129 2.51053 25.8126 2.51103C25.8122 2.51158 25.8122 2.51138 25.8132 2.51045L24.4017 1.09353C23.6181 1.87413 23.6181 3.14134 24.4017 3.92195L25.8132 2.50502ZM30.5984 5.09014C30.5994 5.09107 30.5994 5.09127 30.599 5.09072C30.5987 5.09022 30.5984 5.08956 30.5981 5.08888C30.5976 5.08763 30.5976 5.08716 30.5976 5.08743C30.5976 5.08769 30.5976 5.08722 30.5981 5.08597C30.5984 5.08529 30.5987 5.08464 30.599 5.08414C30.5994 5.08359 30.5994 5.08378 30.5984 5.08471L32.0099 6.50164C32.7936 5.72103 32.7935 4.45382 32.0099 3.67322L30.5984 5.09014ZM28.3252 0.00260393C27.5437 -0.775885 26.2783 -0.775885 25.4968 0.00260393L26.9083 1.41953C26.9092 1.4186 26.9095 1.41846 26.9092 1.41865C26.909 1.41881 26.9087 1.41895 26.9085 1.41902C26.9083 1.41911 26.9092 1.41874 26.911 1.41874C26.9128 1.41874 26.9137 1.41911 26.9135 1.41902C26.9133 1.41895 26.913 1.41881 26.9128 1.41865C26.9125 1.41846 26.9128 1.4186 26.9137 1.41953L28.3252 0.00260393Z" fill="#1C1C1C" mask="url(#path-1-inside-1_1071_1511)"/>
<path d="M2.0276 31.0686C2.49871 30.8339 2.59932 30.2056 2.22504 29.8355C1.85339 29.4681 1.23123 29.5714 0.99823 30.0392C0.669863 30.6985 1.36833 31.3969 2.0276 31.0686Z" fill="white"/>
<path d="M2.22504 29.8355L1.87352 30.1911L1.87352 30.1911L2.22504 29.8355ZM2.0276 31.0686L2.25052 31.5161L2.25052 31.5161L2.0276 31.0686ZM0.99823 30.0392L0.550673 29.8163L0.550673 29.8163L0.99823 30.0392ZM1.87352 30.1911C2.00401 30.3201 1.96893 30.5392 1.80468 30.621L2.25052 31.5161C3.02848 31.1286 3.19463 30.091 2.57656 29.48L1.87352 30.1911ZM1.44579 30.2621C1.52702 30.099 1.74394 30.063 1.87352 30.1911L2.57656 29.48C1.96283 28.8732 0.935431 29.0438 0.550673 29.8163L1.44579 30.2621ZM0.550673 29.8163C0.00842489 30.905 1.16184 32.0584 2.25052 31.5161L1.80468 30.621C1.57483 30.7355 1.3313 30.492 1.44579 30.2621L0.550673 29.8163Z" fill="#1C1C1C"/>
<path d="M1.49965 31.5007L22.4997 31.5007M4.05878 22.5431L1.31141 29.0431M4.05878 22.5431L5.56456 24.0431M4.05878 22.5431L24.1357 2.54307M1.31141 29.0431L0.999563 29.7809C0.650319 30.6072 1.48484 31.4385 2.31429 31.0906L3.05493 30.7799M1.31141 29.0431L3.05493 30.7799M9.57995 28.0431L3.05493 30.7799M9.57995 28.0431L8.07417 26.5431M9.57995 28.0431L29.6569 8.04307M8.07417 26.5431L5.56456 24.0431M8.07417 26.5431L28.1511 6.54307M5.56456 24.0431L25.6415 4.04307M24.1357 2.54307L25.3118 1.35141C26.0959 0.570362 27.3671 0.570364 28.1511 1.35141L30.833 4.02298C31.617 4.80403 31.617 6.07036 30.833 6.85141L29.6569 8.04307M24.1357 2.54307L25.6415 4.04307M29.6569 8.04307L28.1511 6.54307M25.6415 4.04307L28.1511 6.54307" stroke="#1C1C1C" stroke-linecap="round" stroke-linejoin="round"/>
</svg>
