<svg width="32" height="32" viewBox="0 0 32 32" fill="none" xmlns="http://www.w3.org/2000/svg">
<path d="M30.5117 3.33359C30.5117 2.32092 29.7276 1.5 28.7604 1.5L3.26308 1.5C2.29583 1.5 1.51172 2.32093 1.51172 3.33359L1.51174 29.6604C1.51174 30.4291 2.36109 30.7549 2.93446 30.2747L5.41567 28.3207C6.12099 27.7653 6.99266 27.4633 7.89043 27.4633H28.7604C29.7276 27.4633 30.5117 26.6424 30.5117 25.6297L30.5117 3.33359Z" stroke="#1C1C1C"/>
<path d="M26 12.5C26.2761 12.5 26.5 12.7239 26.5 13C26.5 13.2761 26.2761 13.5 26 13.5H6C5.72386 13.5 5.5 13.2761 5.5 13C5.5 12.7239 5.72386 12.5 6 12.5H26ZM26 8.5C26.2761 8.5 26.5 8.72386 26.5 9C26.5 9.27614 26.2761 9.5 26 9.5H6C5.72386 9.5 5.5 9.27614 5.5 9C5.5 8.72386 5.72386 8.5 6 8.5H26ZM26 16.5C26.2761 16.5 26.5 16.7239 26.5 17C26.5 17.2761 26.2761 17.5 26 17.5H6C5.72386 17.5 5.5 17.2761 5.5 17C5.5 16.7239 5.72386 16.5 6 16.5H26ZM26 20.5C26.2761 20.5 26.5 20.7239 26.5 21C26.5 21.2761 26.2761 21.5 26 21.5H6C5.72386 21.5 5.5 21.2761 5.5 21C5.5 20.7239 5.72386 20.5 6 20.5H26Z" stroke="#1C1C1C"/>
</svg>
