<svg width="32" height="32" viewBox="0 0 32 32" fill="none" xmlns="http://www.w3.org/2000/svg">
<path d="M0.5 18.5004H6.66032C6.86749 18.5004 7.0532 18.3488 7.12727 18.1191L8.33125 14.2736C8.50858 13.7237 9.17946 13.7829 9.28643 14.3578L12.4822 31.034C12.6012 31.6732 13.3763 31.6467 13.4641 31.0004L15.1769 18.8875C15.2159 18.5998 15.4251 18.3884 15.6705 18.3884H17.8371C18.0173 18.3884 18.1836 18.5035 18.2723 18.6897L19.2242 20.6877C19.4555 21.1734 20.0723 21.0461 20.1521 20.4963L23.055 1.00061C23.1525 0.328699 23.9713 0.350167 24.0437 1.02654L25.9015 17.9817C25.9333 18.2782 26.1458 18.5004 26.3975 18.5004H31.5" stroke="#1C1C1C" stroke-linecap="round" stroke-linejoin="round"/>
<path d="M23.5 14.2577L20.0508 10.4728C19.1677 9.33792 19.4756 8.32318 20.07 7.83851C20.3816 7.5844 20.7878 7.4566 21.2128 7.51332C21.6333 7.56945 22.1152 7.81287 22.5603 8.37997C22.8022 8.68822 23.1685 8.81957 23.5 8.81957C23.8315 8.81957 24.1978 8.68822 24.4397 8.37997C24.8848 7.81287 25.3667 7.56945 25.7872 7.51332C26.2122 7.4566 26.6184 7.58441 26.93 7.83851C27.5244 8.32318 27.8323 9.33793 26.9492 10.4728L23.5 14.2577ZM12.5 29.2577L9.05078 25.4728C8.16774 24.3379 8.47561 23.3232 9.06997 22.8385C9.38158 22.5844 9.78781 22.4566 10.2128 22.5133C10.6333 22.5695 11.1152 22.8129 11.5603 23.38C11.8022 23.6882 12.1685 23.8196 12.5 23.8196C12.8315 23.8196 13.1978 23.6882 13.4397 23.38C13.8848 22.8129 14.3667 22.5695 14.7872 22.5133C15.2122 22.4566 15.6184 22.5844 15.93 22.8385C16.5244 23.3232 16.8323 24.3379 15.9492 25.4728L12.5 29.2577Z" fill="#1C1C1C" stroke="#1C1C1C"/>
</svg>
